<svg xmlns="http://www.w3.org/2000/svg" viewBox="0 0 32 32" fill="none">
  <rect width="32" height="32" rx="8" fill="#0A0A0F"/>
  <path d="M8 12.5h16a2 2 0 0 1 2 2V22a2 2 0 0 1-2 2H8a2 2 0 0 1-2-2v-7.5a2 2 0 0 1 2-2Z" fill="#F5C518"/>
  <path d="M7 8.5a2 2 0 0 1 2-2h14a2 2 0 0 1 1.79 2.89l-1.56 3.11H7.77L7 11.01V8.5Z" fill="#F5C518"/>
  <path d="M10 6.5l2.5 6" stroke="#0A0A0F" stroke-width="1.8" stroke-linecap="round"/>
  <path d="M16 6.5l2.5 6" stroke="#0A0A0F" stroke-width="1.8" stroke-linecap="round"/>
  <path d="M22 6.8l1.3 3" stroke="#0A0A0F" stroke-width="1.8" stroke-linecap="round"/>
</svg>
